<mxfile host="65bd71144e">
    <diagram id="TmP5UmQbTOstuKxnrmsL" name="ci">
        <mxGraphModel dx="909" dy="945" grid="1" gridSize="10" guides="1" tooltips="1" connect="1" arrows="1" fold="1" page="1" pageScale="1" pageWidth="827" pageHeight="1169" math="0" shadow="0">
            <root>
                <mxCell id="0"/>
                <mxCell id="1" parent="0"/>
                <mxCell id="37" value="" style="group" parent="1" vertex="1" connectable="0">
                    <mxGeometry x="20" y="20" width="907.5" height="420" as="geometry"/>
                </mxCell>
                <mxCell id="43" value="" style="group" parent="37" vertex="1" connectable="0">
                    <mxGeometry width="907.5" height="420" as="geometry"/>
                </mxCell>
                <mxCell id="44" value="" style="group" parent="43" vertex="1" connectable="0">
                    <mxGeometry width="630" height="420" as="geometry"/>
                </mxCell>
                <mxCell id="7" value="" style="rounded=1;whiteSpace=wrap;html=1;" parent="44" vertex="1">
                    <mxGeometry width="630" height="420" as="geometry"/>
                </mxCell>
                <mxCell id="42" value="" style="rounded=1;whiteSpace=wrap;html=1;" parent="44" vertex="1">
                    <mxGeometry x="320" y="15" width="290" height="365" as="geometry"/>
                </mxCell>
                <mxCell id="2" value="github Actions" style="dashed=0;outlineConnect=0;html=1;align=center;labelPosition=center;verticalLabelPosition=bottom;verticalAlign=top;shape=mxgraph.weblogos.github" parent="44" vertex="1">
                    <mxGeometry x="412.5" y="30" width="75" height="75" as="geometry"/>
                </mxCell>
                <mxCell id="3" value="create pull request" style="verticalLabelPosition=bottom;html=1;verticalAlign=top;strokeWidth=2;shape=mxgraph.lean_mapping.push_arrow;" parent="44" vertex="1">
                    <mxGeometry x="90" y="160" width="100" height="30" as="geometry"/>
                </mxCell>
                <mxCell id="6" value="develop" style="rounded=1;whiteSpace=wrap;html=1;" parent="44" vertex="1">
                    <mxGeometry x="190" y="145" width="120" height="60" as="geometry"/>
                </mxCell>
                <mxCell id="14" style="edgeStyle=none;html=1;" parent="44" source="8" edge="1">
                    <mxGeometry relative="1" as="geometry">
                        <mxPoint x="580" y="290" as="targetPoint"/>
                        <Array as="points">
                            <mxPoint x="580" y="175"/>
                        </Array>
                    </mxGeometry>
                </mxCell>
                <mxCell id="8" value="WEBAPI Unit Test" style="rounded=1;whiteSpace=wrap;html=1;" parent="44" vertex="1">
                    <mxGeometry x="390" y="145" width="120" height="60" as="geometry"/>
                </mxCell>
                <mxCell id="10" value="trigger" style="edgeStyle=none;html=1;entryX=0;entryY=0.5;entryDx=0;entryDy=0;" parent="44" source="6" target="8" edge="1">
                    <mxGeometry relative="1" as="geometry"/>
                </mxCell>
                <mxCell id="13" value="notification" style="edgeStyle=none;html=1;" parent="44" source="9" edge="1">
                    <mxGeometry relative="1" as="geometry">
                        <mxPoint x="55" y="230" as="targetPoint"/>
                        <Array as="points">
                            <mxPoint x="580" y="270"/>
                            <mxPoint x="580" y="350"/>
                            <mxPoint x="55" y="350"/>
                        </Array>
                    </mxGeometry>
                </mxCell>
                <mxCell id="9" value="E2E Test" style="rounded=1;whiteSpace=wrap;html=1;" parent="44" vertex="1">
                    <mxGeometry x="390" y="240" width="120" height="60" as="geometry"/>
                </mxCell>
                <mxCell id="11" value="trigger" style="edgeStyle=none;html=1;entryX=0;entryY=0.5;entryDx=0;entryDy=0;" parent="44" source="6" target="9" edge="1">
                    <mxGeometry relative="1" as="geometry"/>
                </mxCell>
                <mxCell id="12" value="developer" style="shape=umlActor;verticalLabelPosition=bottom;verticalAlign=top;html=1;outlineConnect=0;" parent="44" vertex="1">
                    <mxGeometry x="40" y="140" width="30" height="60" as="geometry"/>
                </mxCell>
            </root>
        </mxGraphModel>
    </diagram>
    <diagram id="DCV6YsDhJkSVzRvzi5Ly" name="cd1">
        <mxGraphModel dx="958" dy="945" grid="1" gridSize="10" guides="1" tooltips="1" connect="1" arrows="1" fold="1" page="1" pageScale="1" pageWidth="827" pageHeight="1169" math="0" shadow="0">
            <root>
                <mxCell id="KgP-IVWH9GtcR8F4ZTxu-0"/>
                <mxCell id="KgP-IVWH9GtcR8F4ZTxu-1" parent="KgP-IVWH9GtcR8F4ZTxu-0"/>
                <mxCell id="8oarYxFEB9BB4S1v09Ph-0" value="" style="group;labelBackgroundColor=default;fontColor=#F0F0F0;" parent="KgP-IVWH9GtcR8F4ZTxu-1" vertex="1" connectable="0">
                    <mxGeometry x="40" y="40" width="1210" height="420" as="geometry"/>
                </mxCell>
                <mxCell id="8oarYxFEB9BB4S1v09Ph-1" value="" style="rounded=1;whiteSpace=wrap;html=1;" parent="8oarYxFEB9BB4S1v09Ph-0" vertex="1">
                    <mxGeometry width="1040" height="420" as="geometry"/>
                </mxCell>
                <mxCell id="8oarYxFEB9BB4S1v09Ph-2" value="" style="rounded=1;whiteSpace=wrap;html=1;" parent="8oarYxFEB9BB4S1v09Ph-0" vertex="1">
                    <mxGeometry x="370" y="10" width="420" height="390" as="geometry"/>
                </mxCell>
                <mxCell id="8oarYxFEB9BB4S1v09Ph-3" value="github Actions" style="dashed=0;outlineConnect=0;html=1;align=center;labelPosition=center;verticalLabelPosition=bottom;verticalAlign=top;shape=mxgraph.weblogos.github" parent="8oarYxFEB9BB4S1v09Ph-0" vertex="1">
                    <mxGeometry x="394" y="20" width="75" height="75" as="geometry"/>
                </mxCell>
                <mxCell id="8oarYxFEB9BB4S1v09Ph-4" value="merge" style="verticalLabelPosition=bottom;html=1;verticalAlign=top;strokeWidth=2;shape=mxgraph.lean_mapping.push_arrow;" parent="8oarYxFEB9BB4S1v09Ph-0" vertex="1">
                    <mxGeometry x="90" y="160" width="100" height="30" as="geometry"/>
                </mxCell>
                <mxCell id="8oarYxFEB9BB4S1v09Ph-5" value="main" style="rounded=1;whiteSpace=wrap;html=1;" parent="8oarYxFEB9BB4S1v09Ph-0" vertex="1">
                    <mxGeometry x="190" y="145" width="120" height="60" as="geometry"/>
                </mxCell>
                <mxCell id="8oarYxFEB9BB4S1v09Ph-6" value="notification" style="edgeStyle=none;html=1;fontSize=11;fontColor=#000000;labelBackgroundColor=none;labelPosition=center;verticalLabelPosition=top;align=center;verticalAlign=bottom;" parent="8oarYxFEB9BB4S1v09Ph-0" source="8oarYxFEB9BB4S1v09Ph-7" edge="1">
                    <mxGeometry relative="1" as="geometry">
                        <mxPoint x="60" y="240" as="targetPoint"/>
                        <Array as="points">
                            <mxPoint x="595" y="410"/>
                            <mxPoint x="60" y="410"/>
                        </Array>
                    </mxGeometry>
                </mxCell>
                <mxCell id="8oarYxFEB9BB4S1v09Ph-7" value="Deploy" style="rounded=1;whiteSpace=wrap;html=1;align=left;verticalAlign=top;fontSize=16;" parent="8oarYxFEB9BB4S1v09Ph-0" vertex="1">
                    <mxGeometry x="480" y="77.5" width="230" height="272.5" as="geometry"/>
                </mxCell>
                <mxCell id="8oarYxFEB9BB4S1v09Ph-8" value="trigger" style="edgeStyle=none;html=1;entryX=-0.013;entryY=0.365;entryDx=0;entryDy=0;entryPerimeter=0;" parent="8oarYxFEB9BB4S1v09Ph-0" source="8oarYxFEB9BB4S1v09Ph-5" target="8oarYxFEB9BB4S1v09Ph-7" edge="1">
                    <mxGeometry relative="1" as="geometry"/>
                </mxCell>
                <mxCell id="8oarYxFEB9BB4S1v09Ph-9" value="developer" style="shape=umlActor;verticalLabelPosition=bottom;verticalAlign=top;html=1;outlineConnect=0;" parent="8oarYxFEB9BB4S1v09Ph-0" vertex="1">
                    <mxGeometry x="40" y="140" width="30" height="60" as="geometry"/>
                </mxCell>
                <mxCell id="8oarYxFEB9BB4S1v09Ph-10" style="edgeStyle=none;html=1;entryX=0.5;entryY=0;entryDx=0;entryDy=0;fontSize=11;fontColor=#000000;" parent="8oarYxFEB9BB4S1v09Ph-0" source="8oarYxFEB9BB4S1v09Ph-11" target="8oarYxFEB9BB4S1v09Ph-17" edge="1">
                    <mxGeometry relative="1" as="geometry"/>
                </mxCell>
                <mxCell id="8oarYxFEB9BB4S1v09Ph-19" value="push" style="edgeStyle=none;html=1;labelBackgroundColor=none;fontSize=11;fontColor=#000000;labelPosition=center;verticalLabelPosition=bottom;align=center;verticalAlign=top;" parent="8oarYxFEB9BB4S1v09Ph-0" source="8oarYxFEB9BB4S1v09Ph-11" target="8oarYxFEB9BB4S1v09Ph-18" edge="1">
                    <mxGeometry relative="1" as="geometry"/>
                </mxCell>
                <mxCell id="8oarYxFEB9BB4S1v09Ph-11" value="1.Container Build" style="rounded=1;whiteSpace=wrap;html=1;" parent="8oarYxFEB9BB4S1v09Ph-0" vertex="1">
                    <mxGeometry x="535" y="100" width="120" height="60" as="geometry"/>
                </mxCell>
                <mxCell id="8oarYxFEB9BB4S1v09Ph-13" value="Elastic Container Service" style="sketch=0;points=[[0,0,0],[0.25,0,0],[0.5,0,0],[0.75,0,0],[1,0,0],[0,1,0],[0.25,1,0],[0.5,1,0],[0.75,1,0],[1,1,0],[0,0.25,0],[0,0.5,0],[0,0.75,0],[1,0.25,0],[1,0.5,0],[1,0.75,0]];outlineConnect=0;fontColor=#000000;gradientColor=#F78E04;gradientDirection=north;fillColor=#D05C17;strokeColor=#ffffff;dashed=0;verticalLabelPosition=bottom;verticalAlign=top;align=center;html=1;fontSize=12;fontStyle=0;aspect=fixed;shape=mxgraph.aws4.resourceIcon;resIcon=mxgraph.aws4.ecs;labelBackgroundColor=none;labelBorderColor=none;" parent="8oarYxFEB9BB4S1v09Ph-0" vertex="1">
                    <mxGeometry x="890" y="240" width="78" height="78" as="geometry"/>
                </mxCell>
                <mxCell id="8oarYxFEB9BB4S1v09Ph-14" value="pull" style="edgeStyle=none;html=1;fontColor=default;" parent="8oarYxFEB9BB4S1v09Ph-0" target="8oarYxFEB9BB4S1v09Ph-13" edge="1">
                    <mxGeometry relative="1" as="geometry">
                        <mxPoint x="929" y="169" as="sourcePoint"/>
                    </mxGeometry>
                </mxCell>
                <mxCell id="8oarYxFEB9BB4S1v09Ph-15" value="直接pushは禁止" style="text;html=1;strokeColor=none;fillColor=none;align=center;verticalAlign=middle;whiteSpace=wrap;rounded=0;labelBackgroundColor=default;labelBorderColor=none;fontColor=#FF0000;" parent="8oarYxFEB9BB4S1v09Ph-0" vertex="1">
                    <mxGeometry x="205" y="175" width="90" height="30" as="geometry"/>
                </mxCell>
                <mxCell id="8oarYxFEB9BB4S1v09Ph-20" value="deploy" style="edgeStyle=none;html=1;labelBackgroundColor=none;fontSize=11;fontColor=#000000;labelPosition=center;verticalLabelPosition=bottom;align=center;verticalAlign=top;" parent="8oarYxFEB9BB4S1v09Ph-0" source="8oarYxFEB9BB4S1v09Ph-17" target="8oarYxFEB9BB4S1v09Ph-13" edge="1">
                    <mxGeometry relative="1" as="geometry"/>
                </mxCell>
                <mxCell id="8oarYxFEB9BB4S1v09Ph-17" value="2.Service&amp;nbsp; Deploy" style="rounded=1;whiteSpace=wrap;html=1;" parent="8oarYxFEB9BB4S1v09Ph-0" vertex="1">
                    <mxGeometry x="535" y="249" width="120" height="60" as="geometry"/>
                </mxCell>
                <mxCell id="8oarYxFEB9BB4S1v09Ph-18" value="Elastic Container Registory" style="sketch=0;points=[[0,0,0],[0.25,0,0],[0.5,0,0],[0.75,0,0],[1,0,0],[0,1,0],[0.25,1,0],[0.5,1,0],[0.75,1,0],[1,1,0],[0,0.25,0],[0,0.5,0],[0,0.75,0],[1,0.25,0],[1,0.5,0],[1,0.75,0]];outlineConnect=0;fontColor=#000000;gradientColor=#F78E04;gradientDirection=north;fillColor=#D05C17;strokeColor=#ffffff;dashed=0;verticalLabelPosition=bottom;verticalAlign=top;align=center;html=1;fontSize=12;fontStyle=0;aspect=fixed;shape=mxgraph.aws4.resourceIcon;resIcon=mxgraph.aws4.ecr;labelBackgroundColor=none;labelBorderColor=none;" parent="8oarYxFEB9BB4S1v09Ph-0" vertex="1">
                    <mxGeometry x="890" y="91" width="78" height="78" as="geometry"/>
                </mxCell>
            </root>
        </mxGraphModel>
    </diagram>
    <diagram id="vGP9SWW88vRTjoCZuzv_" name="cd2">
        <mxGraphModel dx="958" dy="945" grid="1" gridSize="10" guides="1" tooltips="1" connect="1" arrows="1" fold="1" page="1" pageScale="1" pageWidth="827" pageHeight="1169" math="0" shadow="0">
            <root>
                <mxCell id="jLkijWO3BSmURIiSlkDY-0"/>
                <mxCell id="jLkijWO3BSmURIiSlkDY-1" parent="jLkijWO3BSmURIiSlkDY-0"/>
                <mxCell id="EgBCTHnwgRgLvqI2a3gK-0" value="" style="group;labelBackgroundColor=default;fontColor=#F0F0F0;" vertex="1" connectable="0" parent="jLkijWO3BSmURIiSlkDY-1">
                    <mxGeometry x="40" y="40" width="1210" height="470" as="geometry"/>
                </mxCell>
                <mxCell id="EgBCTHnwgRgLvqI2a3gK-1" value="" style="rounded=1;whiteSpace=wrap;html=1;" vertex="1" parent="EgBCTHnwgRgLvqI2a3gK-0">
                    <mxGeometry y="-20" width="870" height="475" as="geometry"/>
                </mxCell>
                <mxCell id="EgBCTHnwgRgLvqI2a3gK-2" value="" style="rounded=1;whiteSpace=wrap;html=1;" vertex="1" parent="EgBCTHnwgRgLvqI2a3gK-0">
                    <mxGeometry x="370" y="10" width="300" height="390" as="geometry"/>
                </mxCell>
                <mxCell id="EgBCTHnwgRgLvqI2a3gK-4" value="merge" style="verticalLabelPosition=bottom;html=1;verticalAlign=top;strokeWidth=2;shape=mxgraph.lean_mapping.push_arrow;" vertex="1" parent="EgBCTHnwgRgLvqI2a3gK-0">
                    <mxGeometry x="90" y="160" width="100" height="30" as="geometry"/>
                </mxCell>
                <mxCell id="EgBCTHnwgRgLvqI2a3gK-5" value="main" style="rounded=1;whiteSpace=wrap;html=1;" vertex="1" parent="EgBCTHnwgRgLvqI2a3gK-0">
                    <mxGeometry x="190" y="145" width="120" height="60" as="geometry"/>
                </mxCell>
                <mxCell id="EgBCTHnwgRgLvqI2a3gK-6" value="notification" style="edgeStyle=none;html=1;fontSize=11;fontColor=#000000;labelBackgroundColor=none;labelPosition=center;verticalLabelPosition=top;align=center;verticalAlign=bottom;exitX=0.5;exitY=1;exitDx=0;exitDy=0;exitPerimeter=0;" edge="1" parent="EgBCTHnwgRgLvqI2a3gK-0" source="EgBCTHnwgRgLvqI2a3gK-21">
                    <mxGeometry relative="1" as="geometry">
                        <mxPoint x="60" y="240" as="targetPoint"/>
                        <Array as="points">
                            <mxPoint x="580" y="410"/>
                            <mxPoint x="60" y="410"/>
                        </Array>
                        <mxPoint x="595" y="350" as="sourcePoint"/>
                    </mxGeometry>
                </mxCell>
                <mxCell id="EgBCTHnwgRgLvqI2a3gK-8" value="trigger" style="edgeStyle=none;html=1;entryX=0;entryY=0.5;entryDx=0;entryDy=0;entryPerimeter=0;" edge="1" parent="EgBCTHnwgRgLvqI2a3gK-0" source="EgBCTHnwgRgLvqI2a3gK-5" target="EgBCTHnwgRgLvqI2a3gK-19">
                    <mxGeometry relative="1" as="geometry">
                        <mxPoint x="370" y="175" as="targetPoint"/>
                    </mxGeometry>
                </mxCell>
                <mxCell id="EgBCTHnwgRgLvqI2a3gK-9" value="developer" style="shape=umlActor;verticalLabelPosition=bottom;verticalAlign=top;html=1;outlineConnect=0;" vertex="1" parent="EgBCTHnwgRgLvqI2a3gK-0">
                    <mxGeometry x="40" y="140" width="30" height="60" as="geometry"/>
                </mxCell>
                <mxCell id="EgBCTHnwgRgLvqI2a3gK-11" value="push" style="edgeStyle=none;html=1;labelBackgroundColor=none;fontSize=11;fontColor=#000000;exitX=0.5;exitY=0;exitDx=0;exitDy=0;exitPerimeter=0;labelPosition=center;verticalLabelPosition=top;align=center;verticalAlign=bottom;" edge="1" parent="EgBCTHnwgRgLvqI2a3gK-0" source="EgBCTHnwgRgLvqI2a3gK-21" target="EgBCTHnwgRgLvqI2a3gK-18">
                    <mxGeometry relative="1" as="geometry">
                        <mxPoint x="655" y="130" as="sourcePoint"/>
                        <Array as="points">
                            <mxPoint x="580" y="79"/>
                        </Array>
                    </mxGeometry>
                </mxCell>
                <mxCell id="EgBCTHnwgRgLvqI2a3gK-13" value="Elastic Container Service" style="sketch=0;points=[[0,0,0],[0.25,0,0],[0.5,0,0],[0.75,0,0],[1,0,0],[0,1,0],[0.25,1,0],[0.5,1,0],[0.75,1,0],[1,1,0],[0,0.25,0],[0,0.5,0],[0,0.75,0],[1,0.25,0],[1,0.5,0],[1,0.75,0]];outlineConnect=0;fontColor=#000000;gradientColor=#F78E04;gradientDirection=north;fillColor=#D05C17;strokeColor=#ffffff;dashed=0;verticalLabelPosition=bottom;verticalAlign=top;align=center;html=1;fontSize=12;fontStyle=0;aspect=fixed;shape=mxgraph.aws4.resourceIcon;resIcon=mxgraph.aws4.ecs;labelBackgroundColor=none;labelBorderColor=none;" vertex="1" parent="EgBCTHnwgRgLvqI2a3gK-0">
                    <mxGeometry x="709" y="250" width="78" height="78" as="geometry"/>
                </mxCell>
                <mxCell id="EgBCTHnwgRgLvqI2a3gK-14" value="pull" style="edgeStyle=none;html=1;fontColor=default;" edge="1" parent="EgBCTHnwgRgLvqI2a3gK-0" target="EgBCTHnwgRgLvqI2a3gK-13" source="EgBCTHnwgRgLvqI2a3gK-18">
                    <mxGeometry relative="1" as="geometry">
                        <mxPoint x="929" y="169" as="sourcePoint"/>
                    </mxGeometry>
                </mxCell>
                <mxCell id="EgBCTHnwgRgLvqI2a3gK-15" value="直接pushは禁止" style="text;html=1;strokeColor=none;fillColor=none;align=center;verticalAlign=middle;whiteSpace=wrap;rounded=0;labelBackgroundColor=default;labelBorderColor=none;fontColor=#FF0000;" vertex="1" parent="EgBCTHnwgRgLvqI2a3gK-0">
                    <mxGeometry x="205" y="175" width="90" height="30" as="geometry"/>
                </mxCell>
                <mxCell id="EgBCTHnwgRgLvqI2a3gK-16" value="deploy" style="edgeStyle=none;html=1;labelBackgroundColor=none;fontSize=11;fontColor=#000000;exitX=0.5;exitY=1;exitDx=0;exitDy=0;exitPerimeter=0;labelPosition=center;verticalLabelPosition=bottom;align=center;verticalAlign=top;" edge="1" parent="EgBCTHnwgRgLvqI2a3gK-0" source="EgBCTHnwgRgLvqI2a3gK-21" target="EgBCTHnwgRgLvqI2a3gK-13">
                    <mxGeometry relative="1" as="geometry">
                        <mxPoint x="655" y="279" as="sourcePoint"/>
                        <Array as="points">
                            <mxPoint x="580" y="289"/>
                        </Array>
                    </mxGeometry>
                </mxCell>
                <mxCell id="EgBCTHnwgRgLvqI2a3gK-18" value="Elastic Container Registory" style="sketch=0;points=[[0,0,0],[0.25,0,0],[0.5,0,0],[0.75,0,0],[1,0,0],[0,1,0],[0.25,1,0],[0.5,1,0],[0.75,1,0],[1,1,0],[0,0.25,0],[0,0.5,0],[0,0.75,0],[1,0.25,0],[1,0.5,0],[1,0.75,0]];outlineConnect=0;fontColor=#000000;gradientColor=#F78E04;gradientDirection=north;fillColor=#D05C17;strokeColor=#ffffff;dashed=0;verticalLabelPosition=bottom;verticalAlign=top;align=center;html=1;fontSize=12;fontStyle=0;aspect=fixed;shape=mxgraph.aws4.resourceIcon;resIcon=mxgraph.aws4.ecr;labelBackgroundColor=none;labelBorderColor=none;" vertex="1" parent="EgBCTHnwgRgLvqI2a3gK-0">
                    <mxGeometry x="709" y="40" width="78" height="78" as="geometry"/>
                </mxCell>
                <mxCell id="EgBCTHnwgRgLvqI2a3gK-22" style="edgeStyle=none;html=1;entryX=0;entryY=0.5;entryDx=0;entryDy=0;entryPerimeter=0;labelBackgroundColor=none;fontColor=#000000;" edge="1" parent="EgBCTHnwgRgLvqI2a3gK-0" source="EgBCTHnwgRgLvqI2a3gK-19" target="EgBCTHnwgRgLvqI2a3gK-21">
                    <mxGeometry relative="1" as="geometry"/>
                </mxCell>
                <mxCell id="EgBCTHnwgRgLvqI2a3gK-19" value="CodePipeline" style="sketch=0;points=[[0,0,0],[0.25,0,0],[0.5,0,0],[0.75,0,0],[1,0,0],[0,1,0],[0.25,1,0],[0.5,1,0],[0.75,1,0],[1,1,0],[0,0.25,0],[0,0.5,0],[0,0.75,0],[1,0.25,0],[1,0.5,0],[1,0.75,0]];outlineConnect=0;fontColor=#232F3E;gradientColor=#4D72F3;gradientDirection=north;fillColor=#3334B9;strokeColor=#ffffff;dashed=0;verticalLabelPosition=bottom;verticalAlign=top;align=center;html=1;fontSize=12;fontStyle=0;aspect=fixed;shape=mxgraph.aws4.resourceIcon;resIcon=mxgraph.aws4.codepipeline;labelBackgroundColor=none;" vertex="1" parent="EgBCTHnwgRgLvqI2a3gK-0">
                    <mxGeometry x="402" y="136" width="78" height="78" as="geometry"/>
                </mxCell>
                <mxCell id="EgBCTHnwgRgLvqI2a3gK-21" value="CodeBuild" style="sketch=0;points=[[0,0,0],[0.25,0,0],[0.5,0,0],[0.75,0,0],[1,0,0],[0,1,0],[0.25,1,0],[0.5,1,0],[0.75,1,0],[1,1,0],[0,0.25,0],[0,0.5,0],[0,0.75,0],[1,0.25,0],[1,0.5,0],[1,0.75,0]];outlineConnect=0;fontColor=#232F3E;gradientColor=#4D72F3;gradientDirection=north;fillColor=#3334B9;strokeColor=#ffffff;dashed=0;verticalLabelPosition=bottom;verticalAlign=top;align=center;html=1;fontSize=12;fontStyle=0;aspect=fixed;shape=mxgraph.aws4.resourceIcon;resIcon=mxgraph.aws4.codebuild;labelBackgroundColor=none;" vertex="1" parent="EgBCTHnwgRgLvqI2a3gK-0">
                    <mxGeometry x="541" y="136" width="78" height="78" as="geometry"/>
                </mxCell>
                <mxCell id="EgBCTHnwgRgLvqI2a3gK-24" value="Developer Tools" style="sketch=0;points=[[0,0,0],[0.25,0,0],[0.5,0,0],[0.75,0,0],[1,0,0],[0,1,0],[0.25,1,0],[0.5,1,0],[0.75,1,0],[1,1,0],[0,0.25,0],[0,0.5,0],[0,0.75,0],[1,0.25,0],[1,0.5,0],[1,0.75,0]];outlineConnect=0;fontColor=#232F3E;gradientColor=#4D72F3;gradientDirection=north;fillColor=#3334B9;strokeColor=#ffffff;dashed=0;verticalLabelPosition=bottom;verticalAlign=top;align=center;html=1;fontSize=12;fontStyle=0;aspect=fixed;shape=mxgraph.aws4.resourceIcon;resIcon=mxgraph.aws4.developer_tools;labelBackgroundColor=none;" vertex="1" parent="EgBCTHnwgRgLvqI2a3gK-0">
                    <mxGeometry x="402" y="20" width="78" height="78" as="geometry"/>
                </mxCell>
            </root>
        </mxGraphModel>
    </diagram>
</mxfile>